<svg width="95" height="30" viewBox="0 0 95 30" fill="none" xmlns="http://www.w3.org/2000/svg">
<g id="Logo-Vincit">
<g id="incit">
<path d="M32.1901 6.85547C33.8748 6.85547 35.2788 5.48351 35.2788 3.7246C35.2788 2.00086 33.8748 0.628906 32.1901 0.628906C30.4703 0.628906 29.0664 2.00086 29.0664 3.7246C29.0664 5.48351 30.4703 6.85547 32.1901 6.85547ZM34.4715 8.89581H29.8386V27.0478H34.4715V8.89581Z" fill="#1D1D1D"/>
<path d="M48.3031 8.68474C46.2674 8.68474 44.2669 9.66973 42.898 11.2176V8.89581H38.2651V27.0478H42.898V16.9516C42.898 14.9465 44.4423 13.3283 46.3376 13.3283C48.268 13.3283 49.7772 14.9465 49.7772 16.9516V27.0478H54.4102V16.635C54.4102 11.2176 51.7076 8.68474 48.3031 8.68474Z" fill="#1D1D1D"/>
<path d="M69.1475 15.6149H73.8506C73.64 12.8006 70.9375 8.68474 65.4973 8.68474C60.5134 8.68474 56.5122 12.8358 56.5122 17.9718C56.5122 23.1078 60.5134 27.2589 65.4973 27.2589C70.4461 27.2589 73.64 22.9319 73.7804 20.2936H69.1826C69.0773 20.7861 68.6912 21.4896 67.9893 22.0525C67.3926 22.5098 66.5853 22.8616 65.4973 22.8616C62.9 22.8616 61.1451 20.5398 61.1451 17.9718C61.1451 15.4038 62.7597 13.082 65.4973 13.082C66.5502 13.082 67.3224 13.4338 67.884 13.8559C68.621 14.3836 69.0071 15.1224 69.1475 15.6149Z" fill="#1D1D1D"/>
<path d="M78.6717 6.85547C80.3564 6.85547 81.7603 5.48351 81.7603 3.7246C81.7603 2.00086 80.3564 0.628906 78.6717 0.628906C76.9519 0.628906 75.5479 2.00086 75.5479 3.7246C75.5479 5.48351 76.9519 6.85547 78.6717 6.85547ZM80.953 8.89581H76.3201V27.0478H80.953V8.89581Z" fill="#1D1D1D"/>
<path d="M94.5047 12.9413V8.89581H90.4333V3.7246H85.8004V8.89581H83.168V12.9413H85.8004V21.1379C85.8004 24.6909 88.0467 27.2589 91.4863 27.2589C92.6094 27.2589 93.557 27.0126 94.5047 26.7312V22.6153C94.3643 22.6857 93.7676 23.0023 92.82 23.0023C91.5916 23.0023 90.4333 22.545 90.4333 21.0675V12.9413H94.5047Z" fill="#1D1D1D"/>
</g>
<path id="Vector" d="M13.1801 29.3709C10.7768 29.3709 8.81252 28.4168 7.34377 26.5356C6.21013 25.0841 5.53547 23.3113 4.88294 21.5959C3.44515 17.8211 2.61346 16.0809 0 16.2839V11.5178C2.72406 11.2685 4.89401 12.5328 6.52535 14.5335C7.81604 16.1192 8.54158 18.0297 9.24388 19.8714C10.6396 23.5391 11.3254 24.8653 13.1834 24.8653C15.8378 24.8653 16.7602 21.7391 17.9547 14.882C18.4866 11.8302 19.0363 8.67345 20.1965 6.17199C21.7526 2.8179 24.1902 1.11719 27.4419 1.11719V5.88442C24.3683 5.66788 23.7644 8.78289 22.5567 15.7166C22.0291 18.7448 21.4839 21.8767 20.3447 24.3533C18.4225 28.5014 15.3887 29.3709 13.1801 29.3709Z" fill="#1D1D1D"/>
<g id="incit_2">
<path d="M32.1901 6.85547C33.8748 6.85547 35.2788 5.48351 35.2788 3.7246C35.2788 2.00086 33.8748 0.628906 32.1901 0.628906C30.4703 0.628906 29.0664 2.00086 29.0664 3.7246C29.0664 5.48351 30.4703 6.85547 32.1901 6.85547ZM34.4715 8.89581H29.8386V27.0478H34.4715V8.89581Z" fill="#1D1D1D"/>
<path d="M48.3031 8.68474C46.2674 8.68474 44.2669 9.66973 42.898 11.2176V8.89581H38.2651V27.0478H42.898V16.9516C42.898 14.9465 44.4423 13.3283 46.3376 13.3283C48.268 13.3283 49.7772 14.9465 49.7772 16.9516V27.0478H54.4102V16.635C54.4102 11.2176 51.7076 8.68474 48.3031 8.68474Z" fill="#1D1D1D"/>
<path d="M69.1475 15.6149H73.8506C73.64 12.8006 70.9375 8.68474 65.4973 8.68474C60.5134 8.68474 56.5122 12.8358 56.5122 17.9718C56.5122 23.1078 60.5134 27.2589 65.4973 27.2589C70.4461 27.2589 73.64 22.9319 73.7804 20.2936H69.1826C69.0773 20.7861 68.6912 21.4896 67.9893 22.0525C67.3926 22.5098 66.5853 22.8616 65.4973 22.8616C62.9 22.8616 61.1451 20.5398 61.1451 17.9718C61.1451 15.4038 62.7597 13.082 65.4973 13.082C66.5502 13.082 67.3224 13.4338 67.884 13.8559C68.621 14.3836 69.0071 15.1224 69.1475 15.6149Z" fill="#1D1D1D"/>
<path d="M78.6717 6.85547C80.3564 6.85547 81.7603 5.48351 81.7603 3.7246C81.7603 2.00086 80.3564 0.628906 78.6717 0.628906C76.9519 0.628906 75.5479 2.00086 75.5479 3.7246C75.5479 5.48351 76.9519 6.85547 78.6717 6.85547ZM80.953 8.89581H76.3201V27.0478H80.953V8.89581Z" fill="#1D1D1D"/>
<path d="M94.5047 12.9413V8.89581H90.4333V3.7246H85.8004V8.89581H83.168V12.9413H85.8004V21.1379C85.8004 24.6909 88.0467 27.2589 91.4863 27.2589C92.6094 27.2589 93.557 27.0126 94.5047 26.7312V22.6153C94.3643 22.6857 93.7676 23.0023 92.82 23.0023C91.5916 23.0023 90.4333 22.545 90.4333 21.0675V12.9413H94.5047Z" fill="#1D1D1D"/>
</g>
<path id="Vector_2" d="M13.1801 29.3709C10.7768 29.3709 8.81252 28.4168 7.34377 26.5356C6.21013 25.0841 5.53547 23.3113 4.88294 21.5959C3.44515 17.8211 2.61346 16.0809 0 16.2839V11.5178C2.72406 11.2685 4.89401 12.5328 6.52535 14.5335C7.81604 16.1192 8.54158 18.0297 9.24388 19.8714C10.6396 23.5391 11.3254 24.8653 13.1834 24.8653C15.8378 24.8653 16.7602 21.7391 17.9547 14.882C18.4866 11.8302 19.0363 8.67345 20.1965 6.17199C21.7526 2.8179 24.1902 1.11719 27.4419 1.11719V5.88442C24.3683 5.66788 23.7644 8.78289 22.5567 15.7166C22.0291 18.7448 21.4839 21.8767 20.3447 24.3533C18.4225 28.5014 15.3887 29.3709 13.1801 29.3709Z" fill="#1D1D1D"/>
</g>
</svg>
